<svg xmlns="http://www.w3.org/2000/svg" xmlns:xlink="http://www.w3.org/1999/xlink" xmlns:lucid="lucid" width="877" height="440"><g transform="translate(-40 -40)" lucid:page-tab-id="0_0"><path d="M120 190c0 16.57-13.43 30-30 30s-30-13.43-30-30 13.43-30 30-30 30 13.43 30 30z" stroke="#3a414a" stroke-width="6" fill="#fff"/><use xlink:href="#a" transform="matrix(1,0,0,1,65,165) translate(17.592592592592595 30.27777777777778)"/><path d="M300 190c0 16.57-13.43 30-30 30s-30-13.43-30-30 13.43-30 30-30 30 13.43 30 30z" stroke="#3a414a" stroke-width="6" fill="#fff"/><use xlink:href="#b" transform="matrix(1,0,0,1,245.0000000000001,165) translate(17.592592592592595 30.27777777777778)"/><path d="M126 190h84.02" stroke="#3a414a" stroke-width="6" fill="none"/><path d="M126.08 193h-3.32l.24-2.93-.08-2.5-.1-.57h3.26z" stroke="#3a414a" stroke-width=".05" fill="#3a414a"/><path d="M227.3 190L213 194.64v-9.28z" stroke="#3a414a" stroke-width="6" fill="#3a414a"/><path d="M477 190c0 16.57-13.43 30-30 30s-30-13.43-30-30 13.43-30 30-30 30 13.43 30 30z" stroke="#3a414a" stroke-width="6" fill="#fff"/><use xlink:href="#c" transform="matrix(1,0,0,1,421.99812882820027,165) translate(17.006172839506174 30.27777777777778)"/><path d="M303 190h84.02M303.08 190H300" stroke="#3a414a" stroke-width="6" fill="none"/><path d="M404.3 190L390 194.64v-9.28z" stroke="#3a414a" stroke-width="6" fill="#3a414a"/><path d="M358.5 66a6 6 0 0 1 6-6h168a6 6 0 0 1 6 6v28a6 6 0 0 1-6 6h-168a6 6 0 0 1-6-6z" stroke="#3a414a" fill="#ba23f6"/><use xlink:href="#d" transform="matrix(1,0,0,1,370.49906441409996,72) translate(41.611111111111114 17.77777777777778)"/><path d="M448.5 102.46V134.37" stroke="#3a414a" stroke-width="4" fill="none"/><path d="M450.5 102.5h-4v-2.04h4z" stroke="#3a414a" stroke-width=".05" fill="#3a414a"/><path d="M448.5 150.64l-4.64-14.26h9.27z" stroke="#3a414a" stroke-width="4" fill="#3a414a"/><path d="M480 310c0 16.57-13.43 30-30 30s-30-13.43-30-30 13.43-30 30-30 30 13.43 30 30z" stroke="#3a414a" stroke-width="6" fill="#fff"/><use xlink:href="#e" transform="matrix(1,0,0,1,425,285) translate(17.006172839506174 30.27777777777778)"/><path d="M660 310c0 16.57-13.43 30-30 30s-30-13.43-30-30 13.43-30 30-30 30 13.43 30 30z" stroke="#3a414a" stroke-width="6" fill="#fff"/><use xlink:href="#f" transform="matrix(1,0,0,1,605.0000000000001,285) translate(17.592592592592595 30.27777777777778)"/><path d="M486 310h84.02" stroke="#3a414a" stroke-width="6" fill="none"/><path d="M486.08 313h-3.32l.24-2.93-.08-2.5-.1-.57h3.26z" stroke="#3a414a" stroke-width=".05" fill="#3a414a"/><path d="M587.3 310L573 314.64v-9.28z" stroke="#3a414a" stroke-width="6" fill="#3a414a"/><path d="M837 310c0 16.57-13.43 30-30 30s-30-13.43-30-30 13.43-30 30-30 30 13.43 30 30z" stroke="#3a414a" stroke-width="6" fill="#fff"/><use xlink:href="#g" transform="matrix(1,0,0,1,781.9981288282003,285) translate(18.24074074074074 30.27777777777778)"/><path d="M663 310h84.02M663.08 310H660" stroke="#3a414a" stroke-width="6" fill="none"/><path d="M764.3 310L750 314.64v-9.28z" stroke="#3a414a" stroke-width="6" fill="#3a414a"/><path d="M270 226v78a6 6 0 0 0 6 6h114.02" stroke="#3a414a" stroke-width="6" fill="none"/><path d="M269.93 223l2.5-.08.57-.1v3.26h-6v-3.32z" stroke="#3a414a" stroke-width=".05" fill="#3a414a"/><path d="M407.3 310L393 314.64v-9.28z" stroke="#3a414a" stroke-width="6" fill="#3a414a"/><path d="M717 426a6 6 0 0 1 6-6h168a6 6 0 0 1 6 6v28a6 6 0 0 1-6 6H723a6 6 0 0 1-6-6z" stroke="#3a414a" fill="#1071e5"/><use xlink:href="#h" transform="matrix(1,0,0,1,728.9981288282003,432) translate(7.197530864197532 17.77777777777778)"/><path d="M807 417.04v-49.18" stroke="#3a414a" stroke-width="5" fill="none"/><path d="M809.5 419.54h-5v-2.57h5z" stroke="#3a414a" stroke-width=".05" fill="#3a414a"/><path d="M807 351.1l4.63 14.26h-9.27z" stroke="#3a414a" stroke-width="5" fill="#3a414a"/><defs><path fill="#3a414a" d="M205 0l-28-72H64L36 0H1l101-248h38L239 0h-34zm-38-99l-47-123c-12 45-31 82-46 123h93" id="i"/><use transform="matrix(0.06172839506172839,0,0,0.06172839506172839,0,0)" xlink:href="#i" id="a"/><path fill="#3a414a" d="M160-131c35 5 61 23 61 61C221 17 115-2 30 0v-248c76 3 177-17 177 60 0 33-19 50-47 57zm-97-11c50-1 110 9 110-42 0-47-63-36-110-37v79zm0 115c55-2 124 14 124-45 0-56-70-42-124-44v89" id="j"/><use transform="matrix(0.06172839506172839,0,0,0.06172839506172839,0,0)" xlink:href="#j" id="b"/><path fill="#3a414a" d="M212-179c-10-28-35-45-73-45-59 0-87 40-87 99 0 60 29 101 89 101 43 0 62-24 78-52l27 14C228-24 195 4 139 4 59 4 22-46 18-125c-6-104 99-153 187-111 19 9 31 26 39 46" id="k"/><use transform="matrix(0.06172839506172839,0,0,0.06172839506172839,0,0)" xlink:href="#k" id="c"/><path fill="#fff" d="M220-157c-53 9-28 100-34 157h-49v-107c1-27-5-49-29-50C55-147 81-57 75 0H25l-1-190h47c2 12-1 28 3 38 10-53 101-56 108 0 13-22 24-43 59-42 82 1 51 116 57 194h-49v-107c-1-25-5-48-29-50" id="l"/><path fill="#fff" d="M133-34C117-15 103 5 69 4 32 3 11-16 11-54c-1-60 55-63 116-61 1-26-3-47-28-47-18 1-26 9-28 27l-52-2c7-38 36-58 82-57s74 22 75 68l1 82c-1 14 12 18 25 15v27c-30 8-71 5-69-32zm-48 3c29 0 43-24 42-57-32 0-66-3-65 30 0 17 8 27 23 27" id="m"/><path fill="#fff" d="M137-138c1-29-70-34-71-4 15 46 118 7 119 86 1 83-164 76-172 9l43-7c4 19 20 25 44 25 33 8 57-30 24-41C81-84 22-81 20-136c-2-80 154-74 161-7" id="n"/><path fill="#fff" d="M115-3C79 11 28 4 28-45v-112H4v-33h27l15-45h31v45h36v33H77v99c-1 23 16 31 38 25v30" id="o"/><path fill="#fff" d="M185-48c-13 30-37 53-82 52C43 2 14-33 14-96s30-98 90-98c62 0 83 45 84 108H66c0 31 8 55 39 56 18 0 30-7 34-22zm-45-69c5-46-57-63-70-21-2 6-4 13-4 21h74" id="p"/><path fill="#fff" d="M135-150c-39-12-60 13-60 57V0H25l-1-190h47c2 13-1 29 3 40 6-28 27-53 61-41v41" id="q"/><g id="d"><use transform="matrix(0.06172839506172839,0,0,0.06172839506172839,0,0)" xlink:href="#l"/><use transform="matrix(0.06172839506172839,0,0,0.06172839506172839,19.753086419753085,0)" xlink:href="#m"/><use transform="matrix(0.06172839506172839,0,0,0.06172839506172839,32.098765432098766,0)" xlink:href="#n"/><use transform="matrix(0.06172839506172839,0,0,0.06172839506172839,44.44444444444444,0)" xlink:href="#o"/><use transform="matrix(0.06172839506172839,0,0,0.06172839506172839,51.79012345679012,0)" xlink:href="#p"/><use transform="matrix(0.06172839506172839,0,0,0.06172839506172839,64.1358024691358,0)" xlink:href="#q"/></g><path fill="#3a414a" d="M30-248c118-7 216 8 213 122C240-48 200 0 122 0H30v-248zM63-27c89 8 146-16 146-99s-60-101-146-95v194" id="r"/><use transform="matrix(0.06172839506172839,0,0,0.06172839506172839,0,0)" xlink:href="#r" id="e"/><path fill="#3a414a" d="M30 0v-248h187v28H63v79h144v27H63v87h162V0H30" id="s"/><use transform="matrix(0.06172839506172839,0,0,0.06172839506172839,0,0)" xlink:href="#s" id="f"/><path fill="#3a414a" d="M63-220v92h138v28H63V0H30v-248h175v28H63" id="t"/><use transform="matrix(0.06172839506172839,0,0,0.06172839506172839,0,0)" xlink:href="#t" id="g"/><path fill="#fff" d="M110-194c64 0 96 36 96 99 0 64-35 99-97 99-61 0-95-36-95-99 0-62 34-99 96-99zm-1 164c35 0 45-28 45-65 0-40-10-65-43-65-34 0-45 26-45 65 0 36 10 65 43 65" id="u"/><path fill="#fff" d="M114-157C55-157 80-60 75 0H25v-261h50l-1 109c12-26 28-41 61-42 86-1 58 113 63 194h-50c-7-57 23-157-34-157" id="v"/><path fill="#fff" d="M-4 44V30h207v14H-4" id="w"/><path fill="#fff" d="M135-194c52 0 70 43 70 98 0 56-19 99-73 100-30 1-46-15-58-35L72 0H24l1-261h50v104c11-23 29-37 60-37zM114-30c31 0 40-27 40-66 0-37-7-63-39-63s-41 28-41 65c0 36 8 64 40 64" id="x"/><path fill="#fff" d="M135-194c87-1 58 113 63 194h-50c-7-57 23-157-34-157-59 0-34 97-39 157H25l-1-190h47c2 12-1 28 3 38 12-26 28-41 61-42" id="y"/><path fill="#fff" d="M190-63c-7 42-38 67-86 67-59 0-84-38-90-98-12-110 154-137 174-36l-49 2c-2-19-15-32-35-32-30 0-35 28-38 64-6 74 65 87 74 30" id="z"/><g id="h"><use transform="matrix(0.06172839506172839,0,0,0.06172839506172839,0,0)" xlink:href="#u"/><use transform="matrix(0.06172839506172839,0,0,0.06172839506172839,13.518518518518517,0)" xlink:href="#o"/><use transform="matrix(0.06172839506172839,0,0,0.06172839506172839,20.864197530864196,0)" xlink:href="#v"/><use transform="matrix(0.06172839506172839,0,0,0.06172839506172839,34.382716049382715,0)" xlink:href="#p"/><use transform="matrix(0.06172839506172839,0,0,0.06172839506172839,46.72839506172839,0)" xlink:href="#q"/><use transform="matrix(0.06172839506172839,0,0,0.06172839506172839,55.37037037037037,0)" xlink:href="#w"/><use transform="matrix(0.06172839506172839,0,0,0.06172839506172839,67.71604938271605,0)" xlink:href="#x"/><use transform="matrix(0.06172839506172839,0,0,0.06172839506172839,81.23456790123457,0)" xlink:href="#q"/><use transform="matrix(0.06172839506172839,0,0,0.06172839506172839,89.87654320987654,0)" xlink:href="#m"/><use transform="matrix(0.06172839506172839,0,0,0.06172839506172839,102.22222222222223,0)" xlink:href="#y"/><use transform="matrix(0.06172839506172839,0,0,0.06172839506172839,115.74074074074075,0)" xlink:href="#z"/><use transform="matrix(0.06172839506172839,0,0,0.06172839506172839,128.08641975308643,0)" xlink:href="#v"/></g></defs></g></svg>